<?xml version="1.0" encoding="utf-8"?>
<!-- Generator: Adobe Illustrator 18.0.0, SVG Export Plug-In . SVG Version: 6.00 Build 0)  -->
<!DOCTYPE svg PUBLIC "-//W3C//DTD SVG 1.1//EN" "http://www.w3.org/Graphics/SVG/1.1/DTD/svg11.dtd">
<svg version="1.1" xmlns="http://www.w3.org/2000/svg" xmlns:xlink="http://www.w3.org/1999/xlink" x="0px" y="0px"
	 viewBox="0 0 612 794" enable-background="new 0 0 612 794" xml:space="preserve">
<g id="Layer_1" display="none">
</g>
<g id="Layer_2">
	<g>
		<g>
			<path fill="#010101" d="M371,318.3c0,14.8-3.5,28.6-11.9,40.7c-5.8,8.3-13.3,12.7-20,22.4c-6.3,10.9-10,23.5-9.2,35.8
				c0.4,6.5,2.4,14,5.5,21.5c-38.9,22.2-56.1,72.4-50.7,90.1c1.8,5.7,4,10.1,6.7,13.5c-1.8,0-3.7,0-5.5,0
				c-83.4,0-144.3,11.3-150.6-29.7c-3.8-24.9,29-114.4,110-135.8c-16.9-14.1-27.8-35.1-27.8-58.5c0-42.3,34.3-76.7,76.7-76.7
				C336.7,241.7,371,276,371,318.3z"/>
		</g>
		<g>
			<circle fill="#010101" cx="397" cy="413.3" r="44"/>
			<path fill="#010101" d="M478.7,524.8c-3.6,23.5-38.6,17-86.4,17c-47.9,0-82.8,6.5-86.4-17c-2.5-16.5,22.9-82.3,86.4-80.6
				C455.7,442.5,481.2,508.4,478.7,524.8z"/>
		</g>
	</g>
</g>
</svg>
